<?xml version="1.0" encoding="utf-8"?>
<!-- Generator: Adobe Illustrator 18.0.0, SVG Export Plug-In . SVG Version: 6.00 Build 0)  -->
<!DOCTYPE svg PUBLIC "-//W3C//DTD SVG 1.1//EN" "http://www.w3.org/Graphics/SVG/1.1/DTD/svg11.dtd">
<svg version="1.1" id="ins" xmlns="http://www.w3.org/2000/svg" xmlns:xlink="http://www.w3.org/1999/xlink" x="0px" y="0px"
	 viewBox="0 0 390 150" enable-background="new 0 0 390 150" xml:space="preserve">
<g>
	<path fill="#454448" d="M325.4,145.2H44.9c-22,0-39.9-17.9-39.9-39.9V44.8c0-22,17.9-39.9,39.9-39.9h280.4
		c22,0,39.9,17.9,39.9,39.9v60.4C365.3,127.2,347.4,145.2,325.4,145.2z M44.9,16.9C29.5,16.9,17,29.4,17,44.8v60.4
		c0,15.4,12.5,27.9,27.9,27.9h280.4c15.4,0,27.9-12.5,27.9-27.9V44.8c0-15.4-12.5-27.9-27.9-27.9H44.9z"/>
</g>
<g>
	<path fill="#454448" d="M91.1,102.4H80.9c-1.9,0-3.3-0.8-4.2-2.3L63.9,80.7c-0.5-0.7-1-1.2-1.6-1.6c-0.6-0.3-1.4-0.5-2.5-0.5H55
		v23.7H43.7V41.7h18.5c4.1,0,7.7,0.4,10.6,1.3c3,0.9,5.4,2.1,7.3,3.6c1.9,1.5,3.3,3.4,4.2,5.5c0.9,2.1,1.3,4.5,1.3,7.1
		c0,2-0.3,4-0.9,5.8c-0.6,1.8-1.5,3.5-2.6,5c-1.1,1.5-2.5,2.8-4.2,3.9c-1.7,1.1-3.6,2-5.7,2.6c0.7,0.4,1.4,0.9,2,1.5
		c0.6,0.6,1.2,1.3,1.7,2L91.1,102.4z M62,70.5c2.1,0,4-0.3,5.6-0.8c1.6-0.5,2.9-1.3,3.9-2.2c1-0.9,1.8-2.1,2.3-3.3
		c0.5-1.3,0.8-2.7,0.8-4.2c0-3.1-1-5.4-3-7.1c-2-1.7-5.1-2.5-9.3-2.5H55v20.2H62z"/>
	<path fill="#454448" d="M101.2,82.1c0.2,2.2,0.6,4.1,1.2,5.7c0.6,1.6,1.4,2.9,2.4,4c1,1,2.2,1.8,3.6,2.4c1.4,0.5,2.9,0.8,4.6,0.8
		c1.7,0,3.1-0.2,4.3-0.6c1.2-0.4,2.3-0.8,3.2-1.3c0.9-0.5,1.7-0.9,2.4-1.3c0.7-0.4,1.4-0.6,2-0.6c0.9,0,1.5,0.3,1.9,1l3,3.8
		c-1.1,1.3-2.4,2.5-3.9,3.4c-1.4,0.9-2.9,1.6-4.5,2.2c-1.6,0.5-3.1,0.9-4.7,1.2c-1.6,0.2-3.2,0.3-4.7,0.3c-3,0-5.8-0.5-8.4-1.5
		c-2.6-1-4.8-2.5-6.7-4.4c-1.9-1.9-3.4-4.4-4.5-7.2c-1.1-2.9-1.6-6.2-1.6-10c0-2.9,0.5-5.7,1.4-8.3c1-2.6,2.3-4.8,4.1-6.8
		c1.8-1.9,3.9-3.4,6.5-4.6c2.6-1.1,5.5-1.7,8.7-1.7c2.7,0,5.2,0.4,7.5,1.3c2.3,0.9,4.3,2.1,5.9,3.8c1.7,1.7,2.9,3.7,3.9,6.1
		c0.9,2.4,1.4,5.2,1.4,8.3c0,1.6-0.2,2.6-0.5,3.2s-1,0.8-1.9,0.8H101.2z M121,75.9c0-1.3-0.2-2.6-0.6-3.8c-0.4-1.2-0.9-2.2-1.7-3.1
		c-0.8-0.9-1.7-1.6-2.9-2.1c-1.2-0.5-2.5-0.8-4.1-0.8c-3,0-5.4,0.9-7.1,2.6c-1.7,1.7-2.8,4.1-3.3,7.3H121z"/>
	<path fill="#454448" d="M164.4,67.7c-0.3,0.4-0.6,0.8-0.9,0.9c-0.3,0.2-0.7,0.3-1.2,0.3c-0.5,0-1-0.1-1.6-0.4
		c-0.6-0.3-1.2-0.6-2-0.9s-1.6-0.7-2.6-0.9c-1-0.3-2.1-0.4-3.4-0.4c-2,0-3.6,0.4-4.8,1.3c-1.2,0.9-1.7,2-1.7,3.4
		c0,0.9,0.3,1.7,0.9,2.3s1.4,1.2,2.4,1.7c1,0.5,2.1,0.9,3.4,1.3c1.3,0.4,2.5,0.8,3.8,1.2c1.3,0.4,2.6,1,3.8,1.5
		c1.3,0.6,2.4,1.3,3.4,2.2c1,0.9,1.8,1.9,2.4,3.2c0.6,1.2,0.9,2.7,0.9,4.5c0,2.1-0.4,4-1.1,5.7c-0.7,1.8-1.8,3.3-3.3,4.5
		c-1.5,1.3-3.3,2.3-5.4,3s-4.6,1.1-7.4,1.1c-1.5,0-2.9-0.1-4.3-0.4c-1.4-0.3-2.8-0.6-4.1-1.1c-1.3-0.5-2.5-1-3.6-1.7
		c-1.1-0.6-2.1-1.3-2.9-2.1l2.4-3.9c0.3-0.5,0.7-0.8,1.1-1.1s1-0.4,1.6-0.4c0.6,0,1.3,0.2,1.8,0.5c0.6,0.4,1.2,0.8,2,1.2
		s1.6,0.8,2.7,1.2c1,0.4,2.3,0.5,3.9,0.5c1.2,0,2.3-0.1,3.2-0.4s1.6-0.7,2.2-1.2c0.6-0.5,1-1,1.3-1.7s0.4-1.3,0.4-2
		c0-1-0.3-1.8-0.9-2.5c-0.6-0.6-1.4-1.2-2.4-1.7c-1-0.5-2.1-0.9-3.4-1.3c-1.3-0.4-2.6-0.8-3.9-1.2c-1.3-0.4-2.6-1-3.9-1.6
		c-1.3-0.6-2.4-1.4-3.4-2.3c-1-0.9-1.8-2.1-2.4-3.4c-0.6-1.3-0.9-3-0.9-4.9c0-1.8,0.4-3.4,1.1-5c0.7-1.6,1.7-3,3.1-4.2
		c1.4-1.2,3.1-2.1,5.1-2.9c2-0.7,4.4-1.1,7-1.1c3,0,5.7,0.5,8.1,1.5c2.4,1,4.5,2.3,6.1,3.9L164.4,67.7z"/>
	<path fill="#454448" d="M212.1,59.3v43.1h-6.3c-1.4,0-2.2-0.6-2.6-1.9l-0.7-3.4c-1.8,1.8-3.7,3.2-5.8,4.3c-2.1,1.1-4.6,1.7-7.5,1.7
		c-2.4,0-4.4-0.4-6.2-1.2c-1.8-0.8-3.3-1.9-4.6-3.4c-1.2-1.5-2.2-3.2-2.8-5.2s-0.9-4.2-0.9-6.6V59.3H185v27.4c0,2.6,0.6,4.7,1.8,6.1
		c1.2,1.4,3,2.2,5.5,2.2c1.8,0,3.5-0.4,5-1.2c1.6-0.8,3.1-1.9,4.5-3.3V59.3H212.1z"/>
	<path fill="#454448" d="M222.4,102.4V59.3h6.3c1.3,0,2.2,0.6,2.6,1.9l0.7,3.2c0.8-0.8,1.5-1.6,2.4-2.3c0.8-0.7,1.7-1.3,2.6-1.8
		s1.9-0.9,3-1.2c1.1-0.3,2.3-0.4,3.5-0.4c2.7,0,4.9,0.7,6.7,2.2c1.7,1.5,3.1,3.4,3.9,5.9c0.7-1.4,1.5-2.7,2.5-3.7
		c1-1,2.1-1.9,3.3-2.5c1.2-0.6,2.5-1.1,3.8-1.4s2.7-0.5,4.1-0.5c2.4,0,4.5,0.4,6.3,1.1c1.8,0.7,3.4,1.8,4.7,3.2
		c1.3,1.4,2.2,3.1,2.9,5.1c0.7,2,1,4.3,1,6.9v27.4h-10.4V75c0-2.7-0.6-4.8-1.8-6.2c-1.2-1.4-3-2.1-5.3-2.1c-1.1,0-2.1,0.2-3,0.5
		c-0.9,0.4-1.7,0.9-2.4,1.6c-0.7,0.7-1.2,1.5-1.6,2.6c-0.4,1-0.6,2.2-0.6,3.6v27.4h-10.4V75c0-2.9-0.6-5-1.7-6.3
		c-1.2-1.3-2.9-2-5.1-2c-1.5,0-2.9,0.4-4.2,1.1c-1.3,0.7-2.5,1.8-3.6,3v31.5H222.4z"/>
	<path fill="#454448" d="M300.7,82.1c0.2,2.2,0.6,4.1,1.2,5.7c0.6,1.6,1.4,2.9,2.4,4s2.2,1.8,3.6,2.4c1.4,0.5,2.9,0.8,4.6,0.8
		c1.7,0,3.1-0.2,4.3-0.6c1.2-0.4,2.3-0.8,3.2-1.3c0.9-0.5,1.7-0.9,2.4-1.3c0.7-0.4,1.4-0.6,2-0.6c0.9,0,1.5,0.3,1.9,1l3,3.8
		c-1.1,1.3-2.4,2.5-3.9,3.4c-1.4,0.9-2.9,1.6-4.5,2.2c-1.6,0.5-3.1,0.9-4.7,1.2c-1.6,0.2-3.2,0.3-4.7,0.3c-3,0-5.8-0.5-8.4-1.5
		c-2.6-1-4.8-2.5-6.7-4.4c-1.9-1.9-3.4-4.4-4.5-7.2c-1.1-2.9-1.6-6.2-1.6-10c0-2.9,0.5-5.7,1.4-8.3c1-2.6,2.3-4.8,4.1-6.8
		c1.8-1.9,3.9-3.4,6.5-4.6c2.6-1.1,5.5-1.7,8.7-1.7c2.7,0,5.2,0.4,7.5,1.3c2.3,0.9,4.3,2.1,5.9,3.8c1.7,1.7,2.9,3.7,3.9,6.1
		s1.4,5.2,1.4,8.3c0,1.6-0.2,2.6-0.5,3.2s-1,0.8-1.9,0.8H300.7z M320.5,75.9c0-1.3-0.2-2.6-0.6-3.8c-0.4-1.2-0.9-2.2-1.7-3.1
		c-0.8-0.9-1.7-1.6-2.9-2.1c-1.2-0.5-2.5-0.8-4.1-0.8c-3,0-5.4,0.9-7.1,2.6c-1.7,1.7-2.8,4.1-3.3,7.3H320.5z"/>
</g>
</svg>
